<svg width="2356" height="1223" viewBox="0 0 2356 1223" fill="none" xmlns="http://www.w3.org/2000/svg">
<path d="M255.89 1048.95C201.61 1048.95 152.265 1039.43 107.854 1020.4C64.1487 1002.06 28.1972 975.274 0 940.023L113.141 804.66C152.617 856.126 194.913 881.859 240.029 881.859C271.046 881.859 294.308 872.694 309.817 854.364C326.03 836.033 334.137 809.243 334.137 773.992V349.924H78.2473V188.123H541.386V761.302C541.386 857.184 517.066 929.096 468.426 977.037C420.491 1024.98 349.645 1048.95 255.89 1048.95Z" fill="white"/>
<path d="M1033.35 668.249L1201.02 483.405L1564.66 892.815L1789.17 645.311L1917.5 790.652L1525.32 1223L1033.35 668.249Z" fill="white"/>
<path d="M1471.85 184.844L1639.52 0L2003.16 409.41L2227.67 161.906L2356 307.247L1963.82 739.595L1471.85 184.844Z" fill="white"/>
<path d="M1086 1032.63C997.031 1032.63 916.632 1013.45 844.803 975.079C773.791 936.712 717.879 884.058 677.067 817.118C637.071 749.363 617.074 673.443 617.074 589.361C617.074 505.278 637.071 429.767 677.067 362.828C717.879 295.072 773.791 242.01 844.803 203.643C916.632 165.275 997.031 146.091 1086 146.091C1174.97 146.091 1254.96 165.275 1325.97 203.643C1396.99 242.01 1452.9 295.072 1493.71 362.828C1534.52 429.767 1554.93 505.278 1554.93 589.361C1554.93 673.443 1534.52 749.363 1493.71 817.118C1452.9 884.058 1396.99 936.712 1325.97 975.079C1254.96 1013.45 1174.97 1032.63 1086 1032.63ZM1086 863.65C1136.61 863.65 1182.32 852.221 1223.13 829.363C1263.94 805.69 1295.77 773.036 1318.63 731.403C1342.3 689.77 1354.13 642.423 1354.13 589.361C1354.13 536.299 1342.3 488.952 1318.63 447.319C1295.77 405.685 1263.94 373.44 1223.13 350.583C1182.32 326.909 1136.61 315.072 1086 315.072C1035.39 315.072 989.685 326.909 948.873 350.583C908.061 373.44 875.82 405.685 852.149 447.319C829.295 488.952 817.867 536.299 817.867 589.361C817.867 642.423 829.295 689.77 852.149 731.403C875.82 773.036 908.061 805.69 948.873 829.363C989.685 852.221 1035.39 863.65 1086 863.65Z" fill="white"/>
</svg>
