<svg width="2553" height="587" viewBox="0 0 2553 587" fill="none" xmlns="http://www.w3.org/2000/svg">
<path d="M122.81 510.139C96.7594 510.139 73.077 505.571 51.7629 496.435C30.7871 487.637 13.5328 474.778 0 457.859L54.3003 392.889C73.2462 417.591 93.5453 429.942 115.198 429.942C130.084 429.942 141.248 425.543 148.691 416.745C156.473 407.947 160.363 395.089 160.363 378.169V174.631H37.5535V96.9713H259.829V372.078C259.829 418.099 248.157 452.614 224.813 475.624C201.808 498.634 167.806 510.139 122.81 510.139Z" fill="white"/>
<path d="M612.357 177.169V452.276H520.503V422.836C510.354 434.003 498.174 442.462 483.965 448.215C469.755 453.968 454.7 456.844 438.799 456.844C403.276 456.844 374.857 446.354 353.543 425.374C332.567 404.394 322.079 372.924 322.079 330.965V177.169H418.5V315.23C418.5 335.871 422.391 350.929 430.172 360.404C437.953 369.879 449.287 374.616 464.173 374.616C479.397 374.616 491.746 369.371 501.219 358.881C511.03 348.053 515.936 331.641 515.936 309.646V177.169H612.357Z" fill="white"/>
<path d="M781.542 456.844C747.71 456.844 721.321 448.215 702.375 430.957C683.767 413.361 674.464 388.321 674.464 355.836V75.6531H770.885V350.76C770.885 360.912 773.422 368.694 778.497 374.109C783.91 379.523 791.353 382.23 800.826 382.23C808.607 382.23 815.881 380.538 822.648 377.154L826.707 449.738C812.16 454.475 797.105 456.844 781.542 456.844Z" fill="white"/>
<path d="M861.299 177.169H957.72V452.276H861.299V177.169ZM909.51 146.714C891.917 146.714 877.708 141.807 866.882 131.994C856.055 122.181 850.642 109.999 850.642 95.4486C850.642 80.8981 856.055 68.7162 866.882 58.903C877.708 49.0899 891.917 44.1833 909.51 44.1833C927.102 44.1833 941.312 48.9207 952.138 58.3955C962.964 67.5319 968.377 79.3753 968.377 93.9259C968.377 109.153 962.964 121.843 952.138 131.994C941.312 141.807 927.102 146.714 909.51 146.714Z" fill="white"/>
<path d="M1311.17 177.169V452.276H1219.31V424.866C1201.38 446.185 1174.32 456.844 1138.12 456.844C1113.08 456.844 1090.25 451.091 1069.61 439.586C1049.31 427.743 1033.07 410.993 1020.89 389.336C1009.05 367.679 1003.13 342.639 1003.13 314.215C1003.13 285.79 1009.05 260.919 1020.89 239.601C1033.07 217.944 1049.31 201.363 1069.61 189.858C1090.25 178.353 1113.08 172.6 1138.12 172.6C1170.6 172.6 1196.14 182.075 1214.75 201.025V177.169H1311.17ZM1158.42 380.2C1175.33 380.2 1189.2 374.447 1200.03 362.942C1210.86 351.098 1216.27 334.856 1216.27 314.215C1216.27 293.911 1210.86 278.007 1200.03 266.502C1189.2 254.997 1175.33 249.245 1158.42 249.245C1141.5 249.245 1127.63 254.997 1116.8 266.502C1105.98 278.007 1100.56 293.911 1100.56 314.215C1100.56 334.856 1105.98 351.098 1116.8 362.942C1127.63 374.447 1141.5 380.2 1158.42 380.2Z" fill="white"/>
<path d="M1552.38 172.6C1586.55 172.6 1613.95 182.752 1634.59 203.055C1655.57 223.358 1666.05 253.982 1666.05 294.927V452.276H1569.63V310.661C1569.63 273.101 1554.58 254.32 1524.47 254.32C1507.89 254.32 1494.53 259.735 1484.38 270.563C1474.57 281.391 1469.66 297.634 1469.66 319.29V452.276H1373.24V177.169H1465.09V207.116C1475.92 195.949 1488.77 187.489 1503.66 181.737C1518.55 175.646 1534.79 172.6 1552.38 172.6Z" fill="white"/>
<path d="M1918.22 320.738L1998.69 232.019L2173.21 428.522L2280.96 309.728L2342.55 379.487L2154.33 587L1918.22 320.738Z" fill="white"/>
<path d="M2128.67 88.7192L2209.14 0L2383.66 196.503L2491.41 77.7097L2553 147.469L2364.78 354.981L2128.67 88.7192Z" fill="white"/>
<path d="M1943.49 495.629C1900.79 495.629 1862.2 486.421 1827.73 468.006C1793.65 449.591 1766.81 424.319 1747.22 392.19C1728.03 359.67 1718.43 323.231 1718.43 282.874C1718.43 242.517 1728.03 206.274 1747.22 174.145C1766.81 141.625 1793.65 116.157 1827.73 97.7417C1862.2 79.3265 1900.79 70.1188 1943.49 70.1188C1986.18 70.1188 2024.58 79.3265 2058.66 97.7417C2092.74 116.157 2119.57 141.625 2139.16 174.145C2158.75 206.274 2168.54 242.517 2168.54 282.874C2168.54 323.231 2158.75 359.67 2139.16 392.19C2119.57 424.319 2092.74 449.591 2058.66 468.006C2024.58 486.421 1986.18 495.629 1943.49 495.629ZM1943.49 414.524C1967.77 414.524 1989.71 409.038 2009.3 398.067C2028.88 386.705 2044.16 371.032 2055.13 351.05C2066.49 331.067 2072.17 308.342 2072.17 282.874C2072.17 257.406 2066.49 234.681 2055.13 214.698C2044.16 194.716 2028.88 179.239 2009.3 168.268C1989.71 156.906 1967.77 151.224 1943.49 151.224C1919.2 151.224 1897.26 156.906 1877.67 168.268C1858.09 179.239 1842.61 194.716 1831.25 214.698C1820.28 234.681 1814.8 257.406 1814.8 282.874C1814.8 308.342 1820.28 331.067 1831.25 351.05C1842.61 371.032 1858.09 386.705 1877.67 398.067C1897.26 409.038 1919.2 414.524 1943.49 414.524Z" fill="white"/>
</svg>
